<?xml version="1.0" standalone="no"?>
<!DOCTYPE svg PUBLIC "-//W3C//DTD SVG 20010904//EN"
 "http://www.w3.org/TR/2001/REC-SVG-20010904/DTD/svg10.dtd">
<svg version="1.0" xmlns="http://www.w3.org/2000/svg"
 width="559.000000pt" height="562.000000pt" viewBox="0 0 559.000000 562.000000"
 preserveAspectRatio="xMidYMid meet">

<g transform="translate(0.000000,562.000000) scale(0.100000,-0.100000)"
fill="#000000" stroke="none">
<path d="M2635 4460 l-60 -7 62 -1 c34 -1 65 3 68 8 3 6 3 9 -2 8 -4 -1 -35
-4 -68 -8z"/>
<path d="M2538 4443 c6 -2 18 -2 25 0 6 3 1 5 -13 5 -14 0 -19 -2 -12 -5z"/>
<path d="M2478 4433 c7 -3 16 -2 19 1 4 3 -2 6 -13 5 -11 0 -14 -3 -6 -6z"/>
<path d="M3178 4389 c-9 -6 -8 -9 5 -15 21 -8 67 3 67 16 0 11 -54 10 -72 -1z"/>
<path d="M2278 4383 c7 -3 16 -2 19 1 4 3 -2 6 -13 5 -11 0 -14 -3 -6 -6z"/>
<path d="M2365 4380 c-3 -5 -1 -10 4 -10 6 0 11 5 11 10 0 6 -2 10 -4 10 -3 0
-8 -4 -11 -10z"/>
<path d="M3426 4314 c-3 -9 -6 -17 -6 -19 0 -2 21 -5 48 -7 28 -2 46 -7 45
-14 -1 -8 6 -10 19 -6 18 4 12 10 -33 33 -64 33 -65 33 -73 13z"/>
<path d="M2085 4311 c-16 -7 -14 -9 15 -14 37 -8 52 -1 30 13 -17 11 -18 11
-45 1z"/>
<path d="M3587 4236 c-4 -10 -5 -21 -2 -24 9 -9 17 6 13 25 -3 17 -4 17 -11
-1z"/>
<path d="M1930 4230 c-9 -6 -10 -10 -3 -10 6 0 15 5 18 10 8 12 4 12 -15 0z"/>
<path d="M2760 4200 c20 -13 33 -13 25 0 -3 6 -14 10 -23 10 -15 0 -15 -2 -2
-10z"/>
<path d="M1809 4150 c-17 -14 -20 -19 -9 -20 8 0 21 9 28 20 15 25 11 25 -19
0z"/>
<path d="M1875 4150 c-3 -5 -1 -10 4 -10 6 0 11 5 11 10 0 6 -2 10 -4 10 -3 0
-8 -4 -11 -10z"/>
<path d="M2913 4153 c9 -2 23 -2 30 0 6 3 -1 5 -18 5 -16 0 -22 -2 -12 -5z"/>
<path d="M3743 4139 c-1 -10 5 -19 13 -19 17 0 18 14 1 28 -10 8 -13 6 -14 -9z"/>
<path d="M2315 4120 c-24 -10 -23 -11 39 -15 28 -1 68 3 90 10 l41 13 -75 0
c-41 0 -84 -3 -95 -8z"/>
<path d="M3216 4121 c-3 -4 -27 -6 -53 -5 -41 4 -44 3 -23 -7 14 -5 33 -8 42
-5 10 2 18 -1 18 -7 0 -8 3 -8 9 1 4 7 12 12 17 11 19 -3 34 1 34 11 0 12 -37
13 -44 1z"/>
<path d="M3790 4110 c0 -5 5 -10 11 -10 5 0 7 5 4 10 -3 6 -8 10 -11 10 -2 0
-4 -4 -4 -10z"/>
<path d="M1711 4076 c-9 -11 -8 -15 5 -20 9 -4 20 -3 23 0 3 4 0 9 -7 11 -6 3
-10 9 -6 14 8 14 -2 11 -15 -5z"/>
<path d="M3228 4083 c7 -3 16 -2 19 1 4 3 -2 6 -13 5 -11 0 -14 -3 -6 -6z"/>
<path d="M3817 4070 c-4 -16 -1 -20 11 -18 19 4 23 29 6 35 -6 2 -14 -6 -17
-17z"/>
<path d="M3265 4070 c3 -5 11 -10 16 -10 6 0 7 5 4 10 -3 6 -11 10 -16 10 -6
0 -7 -4 -4 -10z"/>
<path d="M3305 4061 c-6 -11 68 -44 90 -39 10 1 20 9 23 17 3 10 -1 12 -18 8
-13 -3 -38 0 -56 8 -19 8 -36 10 -39 6z"/>
<path d="M1624 3998 c-10 -12 -13 -18 -6 -14 6 4 12 2 12 -3 0 -6 7 -11 15
-11 17 0 20 16 5 25 -6 4 -8 11 -5 16 11 17 -2 9 -21 -13z"/>
<path d="M3905 3991 c-3 -5 -1 -12 5 -16 5 -3 10 1 10 9 0 18 -6 21 -15 7z"/>
<path d="M1986 3961 c-3 -5 1 -11 9 -15 8 -3 15 -1 15 4 0 13 -18 22 -24 11z"/>
<path d="M2638 3963 c6 -2 18 -2 25 0 6 3 1 5 -13 5 -14 0 -19 -2 -12 -5z"/>
<path d="M3555 3960 c-3 -5 1 -10 10 -10 9 0 13 5 10 10 -3 6 -8 10 -10 10 -2
0 -7 -4 -10 -10z"/>
<path d="M2540 3950 c-24 -8 -24 -8 5 -8 17 0 41 4 55 8 24 8 24 8 -5 8 -16 0
-41 -4 -55 -8z"/>
<path d="M3510 3950 c0 -5 5 -10 10 -10 6 0 10 5 10 10 0 6 -4 10 -10 10 -5 0
-10 -4 -10 -10z"/>
<path d="M1556 3928 c-17 -23 -13 -38 10 -38 16 0 19 16 4 25 -8 5 -7 11 1 21
6 8 9 14 6 14 -3 0 -13 -10 -21 -22z"/>
<path d="M2488 3933 c7 -3 16 -2 19 1 4 3 -2 6 -13 5 -11 0 -14 -3 -6 -6z"/>
<path d="M1995 3920 c-3 -6 1 -7 9 -4 18 7 21 14 7 14 -6 0 -13 -4 -16 -10z"/>
<path d="M2410 3915 l-35 -13 35 -3 c92 -7 120 -6 120 2 0 5 -15 9 -33 9 -18
0 -37 4 -42 9 -6 5 -25 3 -45 -4z"/>
<path d="M3083 3913 c-46 -9 -21 -23 40 -23 36 0 68 -5 75 -12 9 -9 12 -9 12
0 0 23 -79 45 -127 35z"/>
<path d="M3985 3910 c-3 -5 -1 -10 4 -10 6 0 11 5 11 10 0 6 -2 10 -4 10 -3 0
-8 -4 -11 -10z"/>
<path d="M3585 3893 c47 -47 145 -121 150 -113 8 13 -4 32 -16 24 -12 -7 -54
44 -54 66 0 10 -9 14 -23 13 -13 -2 -33 2 -45 8 -12 6 -17 7 -12 2z"/>
<path d="M1494 3853 c-16 -21 -35 -47 -43 -58 -15 -19 -15 -19 4 -3 11 9 24
18 30 20 5 2 10 11 10 20 1 10 10 27 20 38 10 11 15 20 12 20 -3 0 -18 -17
-33 -37z"/>
<path d="M1906 3865 c4 -8 10 -12 15 -9 14 8 10 24 -6 24 -9 0 -12 -6 -9 -15z"/>
<path d="M2204 3825 c-10 -8 -14 -15 -8 -15 5 0 19 7 30 15 10 8 14 15 8 15
-5 0 -19 -7 -30 -15z"/>
<path d="M4065 3830 c-3 -5 1 -13 10 -16 22 -9 29 1 11 15 -10 8 -16 9 -21 1z"/>
<path d="M1825 3801 c-3 -5 -1 -12 5 -16 5 -3 10 1 10 9 0 18 -6 21 -15 7z"/>
<path d="M2090 3751 c-36 -26 -74 -59 -85 -72 -11 -13 1 -7 29 15 33 27 57 39
78 38 24 -1 28 3 23 16 -4 10 2 23 17 34 13 10 19 18 13 18 -5 0 -39 -22 -75
-49z"/>
<path d="M1405 3733 c-14 -21 -21 -39 -15 -41 5 -2 10 -13 10 -23 0 -12 5 -17
10 -14 6 4 9 21 7 38 -2 18 3 42 11 55 24 38 4 24 -23 -15z"/>
<path d="M3427 3753 c-14 -13 -6 -24 13 -18 11 3 27 0 35 -7 44 -37 46 -40 34
-54 -17 -21 -6 -26 31 -17 l32 9 -57 47 c-56 46 -74 54 -88 40z"/>
<path d="M4141 3696 c-1 -30 2 -46 10 -46 6 0 9 8 6 20 -3 11 -1 18 3 15 18
-11 19 14 2 35 -18 22 -18 22 -21 -24z"/>
<path d="M1742 3719 c2 -7 10 -15 17 -17 8 -3 12 1 9 9 -2 7 -10 15 -17 17 -8
3 -12 -1 -9 -9z"/>
<path d="M3795 3711 c-6 -11 9 -23 19 -14 9 9 7 23 -3 23 -6 0 -12 -4 -16 -9z"/>
<path d="M2032 3671 c4 -13 18 -16 19 -4 0 4 -5 9 -11 12 -7 2 -11 -2 -8 -8z"/>
<path d="M3868 3643 c-10 -2 -18 -6 -18 -7 0 -2 24 -39 53 -83 28 -44 57 -88
63 -99 9 -15 11 -7 12 44 0 54 -2 62 -18 62 -11 0 -24 8 -30 18 -10 15 -11 15
-5 -3 5 -15 3 -17 -5 -9 -11 11 -18 34 -19 67 -1 17 -3 18 -33 10z m86 -109
c9 -24 2 -26 -12 -4 -7 11 -8 20 -3 20 5 0 12 -7 15 -16z"/>
<path d="M1666 3627 c3 -8 0 -26 -6 -42 -9 -22 -8 -26 2 -17 7 6 21 23 30 39
16 28 16 29 -7 31 -16 1 -23 -3 -19 -11z"/>
<path d="M1316 3585 c-3 -8 -1 -15 4 -15 6 0 10 7 10 15 0 8 -2 15 -4 15 -2 0
-6 -7 -10 -15z"/>
<path d="M1950 3590 c0 -5 5 -10 10 -10 6 0 10 5 10 10 0 6 -4 10 -10 10 -5 0
-10 -4 -10 -10z"/>
<path d="M4230 3591 c0 -6 4 -13 10 -16 6 -3 7 1 4 9 -7 18 -14 21 -14 7z"/>
<path d="M1587 3563 c-2 -4 -1 -17 3 -27 6 -19 7 -19 14 -1 7 19 -8 44 -17 28z"/>
<path d="M1844 3508 c-23 -29 -46 -64 -53 -76 -11 -21 -11 -23 6 -20 10 2 19
11 21 22 5 27 52 92 52 72 0 -9 7 -16 15 -16 19 0 19 19 0 26 -11 5 -12 11 -4
25 16 31 6 22 -37 -33z"/>
<path d="M2298 3553 c7 -3 16 -2 19 1 4 3 -2 6 -13 5 -11 0 -14 -3 -6 -6z"/>
<path d="M2908 3553 c7 -3 16 -2 19 1 4 3 -2 6 -13 5 -11 0 -14 -3 -6 -6z"/>
<path d="M1625 3529 c-4 -6 -5 -12 -2 -15 2 -3 7 2 10 11 7 17 1 20 -8 4z"/>
<path d="M1258 3473 c-37 -69 -42 -107 -18 -135 l19 -23 2 55 c1 30 1 58 0 62
0 4 6 23 15 43 22 54 11 53 -18 -2z"/>
<path d="M2238 3513 c28 -2 76 -2 105 0 28 2 5 3 -53 3 -58 0 -81 -1 -52 -3z"/>
<path d="M2888 3513 c12 -2 32 -2 45 0 12 2 2 4 -23 4 -25 0 -35 -2 -22 -4z"/>
<path d="M3308 3513 c18 -2 45 -2 60 0 15 2 0 4 -33 4 -33 0 -45 -2 -27 -4z"/>
<path d="M1590 3480 c0 -19 3 -21 12 -12 9 9 9 15 0 24 -9 9 -12 7 -12 -12z"/>
<path d="M2383 3398 c-7 -57 -10 -104 -8 -107 3 -2 11 1 19 8 11 9 15 9 19 -1
6 -13 10 26 12 99 0 24 -4 41 -10 40 -6 -1 -9 12 -7 31 2 17 -1 32 -5 32 -5 0
-14 -46 -20 -102z"/>
<path d="M2790 3473 c0 -18 5 -33 10 -33 13 0 13 30 0 50 -7 11 -10 7 -10 -17z"/>
<path d="M2762 3470 c0 -14 2 -19 5 -12 2 6 2 18 0 25 -3 6 -5 1 -5 -13z"/>
<path d="M3730 3474 c0 -6 3 -14 7 -18 4 -4 8 -15 8 -24 0 -9 8 -18 18 -20 15
-3 17 -1 9 15 -18 31 -41 58 -42 47z"/>
<path d="M4295 3467 c3 -10 5 -45 5 -78 0 -33 4 -59 10 -59 6 0 10 9 10 19 0
11 5 21 11 23 6 2 1 25 -15 58 -15 30 -24 47 -21 37z"/>
<path d="M3130 3408 c0 -15 5 -30 10 -33 13 -8 13 25 0 45 -8 12 -10 9 -10
-12z"/>
<path d="M3168 3370 c4 -44 2 -50 -12 -44 -10 4 -16 1 -16 -9 0 -28 11 -46 26
-40 9 3 14 -1 14 -13 0 -9 3 -15 6 -12 8 9 -7 168 -16 168 -4 0 -5 -23 -2 -50z"/>
<path d="M2759 3240 l-4 -125 -65 -3 c-64 -3 -64 -4 -35 -17 l30 -14 -25 -8
c-20 -6 -14 -9 35 -13 l60 -5 6 -45 c3 -25 7 -37 7 -27 2 18 22 24 22 6 0 -5
5 -7 11 -4 5 4 9 17 8 28 -3 47 -4 47 116 47 74 0 115 4 115 11 0 5 -4 7 -10
4 -5 -3 -10 1 -10 10 0 9 4 14 9 10 5 -3 12 -1 16 5 4 7 -35 10 -114 10 l-121
0 -1 28 c-1 15 -1 48 1 73 1 36 -3 51 -18 65 -11 11 -22 35 -24 54 -3 19 -6
-21 -9 -90z m31 -20 c0 -5 -4 -10 -10 -10 -5 0 -10 5 -10 10 0 6 5 10 10 10 6
0 10 -4 10 -10z"/>
<path d="M1500 3288 c-6 -24 -15 -51 -20 -60 -6 -10 -10 -30 -10 -45 0 -18 11
3 30 57 35 99 33 90 20 90 -5 0 -14 -19 -20 -42z"/>
<path d="M1981 3258 c3 -95 13 -127 23 -74 4 21 3 43 -2 48 -5 5 -7 29 -4 53
3 30 0 45 -8 45 -8 0 -11 -23 -9 -72z"/>
<path d="M3569 3318 c-1 -2 -2 -16 -4 -33 -1 -16 -7 -31 -12 -32 -7 -3 -7 -22
-1 -56 18 -94 27 -87 28 21 0 56 -2 102 -5 102 -3 0 -5 -1 -6 -2z"/>
<path d="M3825 3290 c0 -17 5 -30 13 -30 6 0 12 6 12 13 0 7 -6 21 -12 30 -12
15 -13 14 -13 -13z"/>
<path d="M4041 3310 c0 -8 10 -46 24 -85 13 -38 25 -78 25 -88 0 -10 4 -16 9
-12 6 3 6 18 0 37 -6 23 -5 34 4 40 8 5 6 8 -6 8 -12 0 -17 6 -15 18 2 9 -3
25 -12 35 -8 9 -18 27 -22 40 -3 12 -6 15 -7 7z"/>
<path d="M1716 3281 c-5 -7 -3 -18 3 -24 14 -14 20 -6 11 17 -5 15 -9 16 -14
7z"/>
<path d="M3541 3274 c0 -11 3 -14 6 -6 3 7 2 16 -1 19 -3 4 -6 -2 -5 -13z"/>
<path d="M1160 3173 c-13 -61 -8 -129 9 -146 8 -8 11 18 9 96 -1 59 -3 107 -4
107 -2 0 -8 -26 -14 -57z"/>
<path d="M4387 3146 c-7 -50 -8 -319 -2 -301 10 27 24 294 17 320 -8 29 -9 28
-15 -19z"/>
<path d="M4121 3166 c-9 -11 -8 -22 3 -48 l14 -33 1 48 c1 51 -1 54 -18 33z"/>
<path d="M1420 3155 c0 -8 5 -15 10 -15 6 0 10 7 10 15 0 8 -4 15 -10 15 -5 0
-10 -7 -10 -15z"/>
<path d="M1649 3123 c-15 -45 -15 -78 -7 -325 4 -103 3 -190 -1 -193 -5 -2 -7
-15 -6 -27 1 -13 3 -34 4 -47 0 -13 4 -21 9 -17 6 6 21 634 16 644 -1 2 -8
-14 -15 -35z"/>
<path d="M2355 3150 c-3 -5 -1 -10 4 -10 6 0 11 5 11 10 0 6 -2 10 -4 10 -3 0
-8 -4 -11 -10z"/>
<path d="M3895 3115 c4 -22 7 -89 7 -150 l-1 -110 14 55 c18 71 18 112 1 179
-18 64 -32 82 -21 26z"/>
<path d="M2386 3121 c-4 -5 -2 -20 2 -32 9 -23 9 -23 19 -4 8 15 7 23 -3 32
-7 7 -15 9 -18 4z"/>
<path d="M2053 3103 c9 -2 17 -13 17 -24 0 -17 8 -19 102 -19 92 0 100 1 82
15 -16 13 -17 16 -4 25 10 7 -20 9 -100 9 -63 -1 -107 -3 -97 -6z"/>
<path d="M2475 3100 c4 -6 10 -8 14 -6 4 3 8 -2 8 -10 0 -11 -7 -14 -24 -9
-13 3 -23 1 -23 -5 0 -6 34 -10 87 -10 85 0 103 6 47 16 -16 3 -36 12 -45 20
-18 16 -74 20 -64 4z"/>
<path d="M3280 3095 c0 -8 -8 -19 -17 -24 -13 -7 29 -10 142 -9 88 0 150 3
138 5 -23 4 -33 23 -13 23 6 0 10 5 10 10 0 7 -47 10 -130 9 -102 -1 -130 -4
-130 -14z"/>
<path d="M4115 3058 c-3 -7 -1 -33 4 -58 l9 -45 1 58 c1 55 -4 71 -14 45z"/>
<path d="M1430 3025 c0 -14 2 -25 4 -25 2 0 6 11 8 25 3 14 1 25 -3 25 -5 0
-9 -11 -9 -25z"/>
<path d="M3172 3030 c0 -14 2 -19 5 -12 2 6 2 18 0 25 -3 6 -5 1 -5 -13z"/>
<path d="M3182 2980 c0 -14 2 -19 5 -12 2 6 2 18 0 25 -3 6 -5 1 -5 -13z"/>
<path d="M3186 2890 c3 -36 10 -83 14 -105 7 -36 8 -37 10 -10 4 66 -2 131
-16 155 -14 23 -14 20 -8 -40z"/>
<path d="M1903 2889 c4 -30 7 -67 8 -84 1 -28 1 -28 10 8 6 25 5 45 -2 58 -5
11 -7 28 -4 39 3 10 1 22 -6 26 -9 5 -10 -7 -6 -47z"/>
<path d="M2358 2891 c-5 -18 -8 -50 -7 -70 0 -34 1 -34 10 -11 6 13 9 45 7 70
-3 45 -3 45 -10 11z"/>
<path d="M2325 2870 c-4 -23 -5 -44 -2 -46 3 -3 8 13 12 36 4 23 5 44 2 46 -3
3 -8 -13 -12 -36z"/>
<path d="M3635 2889 c-9 -13 1 -81 20 -139 l15 -45 -5 55 c-3 30 -5 74 -5 98
0 40 -11 54 -25 31z"/>
<path d="M2762 2770 c-1 -58 3 -96 7 -86 6 16 9 17 16 5 7 -11 10 -9 15 9 7
33 0 123 -11 117 -4 -3 -13 9 -18 27 -7 26 -9 11 -9 -72z"/>
<path d="M3225 2860 c3 -5 8 -10 11 -10 2 0 4 5 4 10 0 6 -5 10 -11 10 -5 0
-7 -4 -4 -10z"/>
<path d="M4125 2680 c-5 -85 -9 -159 -10 -164 0 -5 5 -11 10 -13 6 -2 11 15
11 39 0 24 4 86 8 138 4 52 3 109 -2 125 -7 23 -11 -8 -17 -125z"/>
<path d="M1425 2636 c2 -49 8 -93 14 -99 10 -10 5 62 -9 141 -8 38 -8 30 -5
-42z"/>
<path d="M4380 2639 c0 -11 4 -18 10 -14 5 3 7 12 3 20 -7 21 -13 19 -13 -6z"/>
<path d="M2022 2635 c2 -3 30 -6 62 -6 64 -2 79 -12 39 -27 -22 -8 -8 -11 70
-11 l99 -1 -6 -37 c-3 -21 -8 -69 -12 -108 -6 -66 -5 -69 10 -50 9 11 15 15
14 8 -2 -6 2 -12 7 -12 6 -1 13 15 17 36 8 43 9 144 1 126 -2 -7 -9 -13 -14
-13 -6 0 -8 4 -5 9 9 13 -12 63 -23 57 -15 -10 -40 5 -34 20 4 12 -15 14 -113
14 -64 0 -115 -2 -112 -5z"/>
<path d="M2483 2628 c15 -5 27 -16 27 -24 0 -11 21 -14 108 -14 94 1 105 2 88
15 -10 7 -15 18 -11 24 4 8 -32 11 -117 10 -95 0 -117 -3 -95 -11z m170 -15
c-7 -2 -19 -2 -25 0 -7 3 -2 5 12 5 14 0 19 -2 13 -5z"/>
<path d="M2850 2631 c8 -6 18 -7 23 -4 4 3 11 -4 14 -16 5 -20 12 -21 105 -21
60 0 97 4 93 9 -7 12 32 34 45 26 6 -3 10 -1 10 4 0 7 -52 11 -152 11 -97 0
-148 -4 -138 -9z"/>
<path d="M3370 2631 c8 -6 18 -7 22 -5 4 3 16 1 25 -5 16 -8 14 -10 -9 -16
-15 -4 -30 -5 -35 -2 -4 2 -17 1 -28 -4 -12 -4 29 -8 100 -8 74 0 115 3 106 8
-8 5 -20 7 -28 4 -7 -3 -13 -1 -13 4 0 5 21 14 48 20 42 9 34 10 -78 11 -79 1
-120 -2 -110 -7z"/>
<path d="M1172 2590 c0 -14 2 -19 5 -12 2 6 2 18 0 25 -3 6 -5 1 -5 -13z"/>
<path d="M3120 2600 c-11 -7 -3 -10 30 -9 34 0 40 2 25 9 -27 12 -37 12 -55 0z"/>
<path d="M1831 2590 c-2 -8 -4 -24 -6 -35 -3 -11 -1 -45 2 -75 l7 -55 12 55
c7 30 9 57 4 60 -4 3 -10 19 -13 35 -2 17 -5 23 -6 15z"/>
<path d="M4381 2500 c-1 -58 -3 -123 -6 -145 -2 -22 5 -3 17 42 21 78 21 84 6
145 l-16 63 -1 -105z"/>
<path d="M3237 2458 c7 -67 18 -127 24 -133 9 -7 10 -6 5 3 -4 7 -4 27 0 45 7
32 7 32 15 7 5 -15 7 10 5 63 -2 49 -9 94 -15 100 -8 8 -11 8 -11 -2 0 -7 -4
-9 -10 -6 -5 3 -10 15 -10 26 0 10 -4 19 -8 19 -5 0 -2 -55 5 -122z"/>
<path d="M3912 2540 c0 -14 2 -19 5 -12 2 6 2 18 0 25 -3 6 -5 1 -5 -13z"/>
<path d="M1163 2523 c-18 -38 -16 -71 7 -147 20 -63 37 -93 24 -41 -4 17 -2
25 7 25 9 0 7 4 -4 13 -12 9 -17 32 -19 94 -3 74 -4 80 -15 56z"/>
<path d="M3714 2516 c-3 -13 1 -46 9 -73 l14 -48 1 73 c2 71 -11 97 -24 48z"/>
<path d="M2759 2470 c-6 -70 1 -166 12 -149 6 10 9 10 9 2 0 -7 7 -13 15 -13
12 0 15 15 14 78 0 42 -4 86 -8 96 -7 19 -8 19 -16 0 -7 -17 -8 -17 -15 6 -6
21 -7 17 -11 -20z"/>
<path d="M3901 2494 c0 -11 3 -14 6 -6 3 7 2 16 -1 19 -3 4 -6 -2 -5 -13z"/>
<path d="M1651 2495 c-2 -37 113 -305 131 -305 12 0 10 28 -3 32 -7 2 -12 18
-13 36 0 17 -7 34 -13 37 -7 2 -13 11 -13 19 0 8 -6 17 -12 19 -10 4 -10 6 0
6 6 1 12 8 12 16 0 18 -16 20 -23 3 -3 -8 -7 -6 -12 7 -23 64 -54 139 -54 130z"/>
<path d="M4127 2484 c-4 -4 -7 -17 -7 -28 1 -19 1 -20 11 -3 11 19 8 43 -4 31z"/>
<path d="M1719 2440 c0 -3 -2 -12 -4 -20 -1 -8 4 -21 11 -28 12 -11 14 -10 14
5 0 16 -18 55 -21 43z"/>
<path d="M4045 2318 c-10 -29 -35 -88 -57 -130 -21 -43 -35 -78 -30 -78 4 0
19 21 32 48 22 44 25 51 29 70 1 4 6 -1 12 -11 17 -28 30 -9 28 41 -1 26 1 62
5 80 11 48 2 39 -19 -20z"/>
<path d="M3826 2329 c-10 -53 -7 -67 9 -39 16 29 19 56 6 64 -5 3 -11 -8 -15
-25z"/>
<path d="M1506 2279 c-10 -51 -7 -81 7 -76 6 2 11 13 9 23 -3 18 -3 18 12 -1
8 -11 16 -24 16 -30 0 -15 40 -78 46 -73 2 3 -15 46 -39 97 -43 89 -45 91 -51
60z"/>
<path d="M1787 2283 c-11 -10 -8 -43 3 -43 6 0 10 11 10 25 0 26 -2 29 -13 18z"/>
<path d="M3761 2275 c0 -11 6 -33 14 -50 l15 -30 -6 35 c-8 44 -23 75 -23 45z"/>
<path d="M2283 2230 c-7 -26 -8 -49 -3 -54 10 -10 24 52 18 81 -2 11 -8 1 -15
-27z"/>
<path d="M3267 2190 c-3 -11 -1 -20 4 -20 5 0 9 9 9 20 0 11 -2 20 -4 20 -2 0
-6 -9 -9 -20z"/>
<path d="M1230 2193 c0 -5 5 -15 10 -23 8 -12 10 -11 10 8 0 12 -4 22 -10 22
-5 0 -10 -3 -10 -7z"/>
<path d="M2240 2186 c0 -9 5 -16 10 -16 6 0 10 4 10 9 0 6 -4 13 -10 16 -5 3
-10 -1 -10 -9z"/>
<path d="M4317 2193 c-4 -3 -7 -13 -7 -22 1 -13 3 -13 11 2 11 19 8 33 -4 20z"/>
<path d="M3305 2180 c3 -5 8 -10 11 -10 2 0 4 5 4 10 0 6 -5 10 -11 10 -5 0
-7 -4 -4 -10z"/>
<path d="M2168 2163 c-10 -2 -18 -8 -18 -13 0 -11 70 -19 94 -10 17 6 15 8
-14 18 -18 7 -36 11 -39 11 -3 -1 -14 -3 -23 -6z"/>
<path d="M2294 2159 c-11 -18 10 -30 36 -21 l24 9 -21 12 c-27 14 -30 14 -39
0z"/>
<path d="M2935 2162 c-38 -5 -57 -21 -27 -23 29 -2 73 -2 125 0 29 1 37 4 27
10 -19 11 -87 18 -125 13z"/>
<path d="M1909 2150 c-7 -5 -10 -13 -5 -17 5 -4 11 -3 13 4 2 7 11 9 19 6 8
-3 14 -3 14 0 0 10 -27 15 -41 7z"/>
<path d="M2515 2150 c-13 -6 13 -9 75 -9 65 -1 90 2 80 9 -18 12 -127 12 -155
0z"/>
<path d="M3234 2149 c-3 -5 6 -9 20 -9 31 0 34 6 6 13 -11 3 -23 1 -26 -4z"/>
<path d="M3320 2151 c0 -14 21 -18 63 -13 54 6 45 22 -13 22 -27 0 -50 -4 -50
-9z"/>
<path d="M3551 2151 c-9 -6 2 -10 35 -13 53 -5 68 -2 59 13 -8 11 -75 12 -94
0z"/>
<path d="M3670 2061 c-13 -25 -13 -34 0 -26 16 10 32 45 21 45 -6 0 -15 -9
-21 -19z"/>
<path d="M3960 2064 c0 -8 5 -12 10 -9 6 4 8 11 5 16 -9 14 -15 11 -15 -7z"/>
<path d="M1296 2050 c7 -28 84 -160 84 -145 0 6 -4 17 -10 25 -5 9 -5 19 2 28
8 9 8 16 -2 25 -10 9 -11 9 -6 0 4 -7 3 -13 -3 -13 -10 0 -23 30 -20 46 1 5 1
17 0 28 -1 15 -4 16 -15 7 -11 -10 -17 -8 -26 6 -9 15 -10 14 -4 -7z"/>
<path d="M4225 2058 c-4 -10 -5 -25 -1 -33 7 -18 -19 -82 -36 -87 -8 -3 -8 -7
-2 -11 13 -7 78 104 66 112 -5 3 -11 13 -14 21 -5 13 -7 12 -13 -2z"/>
<path d="M1880 2049 c0 -8 33 -46 72 -84 50 -48 56 -52 20 -15 -28 31 -52 60
-52 66 0 6 -9 19 -20 29 -16 14 -20 15 -20 4z"/>
<path d="M1670 2003 c0 -6 -3 -18 -6 -27 -3 -9 -2 -16 4 -16 15 0 21 25 11 41
-5 9 -9 9 -9 2z"/>
<path d="M3874 1999 c-3 -6 -1 -16 5 -22 8 -8 11 -5 11 11 0 24 -5 28 -16 11z"/>
<path d="M1730 1926 c0 -2 8 -10 18 -17 15 -13 16 -12 3 4 -13 16 -21 21 -21
13z"/>
<path d="M3801 1906 c-19 -21 -20 -24 -6 -30 23 -8 22 -9 27 24 3 17 4 30 3
30 -1 0 -12 -11 -24 -24z"/>
<path d="M4150 1881 c0 -25 6 -27 13 -6 4 8 2 17 -3 20 -6 4 -10 -3 -10 -14z"/>
<path d="M1810 1835 c19 -19 36 -35 39 -35 3 0 -10 16 -29 35 -19 19 -36 35
-39 35 -3 0 10 -16 29 -35z"/>
<path d="M1750 1829 c0 -5 5 -7 10 -4 6 3 10 8 10 11 0 2 -4 4 -10 4 -5 0 -10
-5 -10 -11z"/>
<path d="M3724 1818 l-19 -23 23 19 c12 11 22 21 22 23 0 8 -8 2 -26 -19z"/>
<path d="M4060 1800 c0 -5 5 -10 11 -10 5 0 7 5 4 10 -3 6 -8 10 -11 10 -2 0
-4 -4 -4 -10z"/>
<path d="M1477 1786 c-4 -10 -1 -13 9 -9 15 6 19 23 5 23 -5 0 -11 -7 -14 -14z"/>
<path d="M2180 1790 c0 -5 13 -16 30 -25 32 -17 55 -20 28 -4 -10 5 -18 17
-18 24 0 8 -9 15 -20 15 -11 0 -20 -4 -20 -10z"/>
<path d="M3345 1790 c3 -5 13 -10 21 -10 8 0 12 5 9 10 -3 6 -13 10 -21 10 -8
0 -12 -4 -9 -10z"/>
<path d="M1495 1740 c10 -11 20 -20 23 -20 3 0 -3 9 -13 20 -10 11 -20 20 -23
20 -3 0 3 -9 13 -20z"/>
<path d="M3635 1740 c-3 -5 -1 -10 4 -10 6 0 11 5 11 10 0 6 -2 10 -4 10 -3 0
-8 -4 -11 -10z"/>
<path d="M2322 1714 c16 -8 39 -11 57 -8 48 10 36 19 -26 20 -54 1 -55 1 -31
-12z"/>
<path d="M3980 1716 c0 -8 6 -16 13 -19 17 -6 -3 -39 -31 -52 -12 -5 -22 -15
-22 -22 0 -7 -4 -13 -9 -13 -5 0 -12 -8 -15 -17 -4 -10 17 6 47 35 49 49 53
56 43 78 -12 26 -26 32 -26 10z"/>
<path d="M1554 1705 c5 -13 2 -14 -17 -4 -12 6 16 -27 62 -75 47 -47 86 -84
88 -82 2 2 -26 32 -63 68 -60 58 -65 67 -55 86 10 18 9 22 -5 22 -10 0 -14 -5
-10 -15z"/>
<path d="M3185 1710 c3 -5 12 -10 20 -10 8 0 17 5 20 10 4 6 -5 10 -20 10 -15
0 -24 -4 -20 -10z"/>
<path d="M4025 1710 c-3 -5 -1 -10 4 -10 6 0 11 5 11 10 0 6 -2 10 -4 10 -3 0
-8 -4 -11 -10z"/>
<path d="M1986 1674 c-9 -23 -2 -28 13 -10 7 8 8 17 3 20 -6 3 -13 -1 -16 -10z"/>
<path d="M3542 1671 c-10 -6 -8 -10 9 -14 26 -7 34 -3 24 12 -7 13 -15 14 -33
2z"/>
<path d="M2545 1642 c58 -18 414 -23 452 -6 15 6 -18 9 -112 10 -74 0 -132 -3
-129 -8 3 -4 -2 -8 -11 -8 -9 0 -13 5 -10 10 3 6 2 10 -4 10 -5 0 -11 -6 -14
-12 -3 -10 -7 -10 -18 -2 -8 6 -57 14 -109 16 l-95 5 50 -15z"/>
<path d="M1635 1639 c-10 -15 3 -25 16 -12 7 7 7 13 1 17 -6 3 -14 1 -17 -5z"/>
<path d="M3902 1639 c2 -7 10 -15 17 -17 8 -3 12 1 9 9 -2 7 -10 15 -17 17 -8
3 -12 -1 -9 -9z"/>
<path d="M2113 1589 c-2 -17 1 -18 13 -9 11 10 14 10 14 1 0 -7 5 -9 11 -6 6
5 4 12 -8 21 -24 18 -28 17 -30 -7z"/>
<path d="M3405 1590 c-16 -7 -17 -9 -3 -9 9 -1 20 4 23 9 7 11 7 11 -20 0z"/>
<path d="M2065 1580 c3 -5 10 -10 16 -10 5 0 9 5 9 10 0 6 -7 10 -16 10 -8 0
-12 -4 -9 -10z"/>
<path d="M1710 1555 c-17 -21 -8 -28 15 -11 11 8 14 15 8 19 -6 4 -16 0 -23
-8z"/>
<path d="M3820 1560 c0 -5 5 -10 11 -10 5 0 7 5 4 10 -3 6 -8 10 -11 10 -2 0
-4 -4 -4 -10z"/>
<path d="M2300 1510 c-13 -8 -12 -10 3 -10 9 0 17 5 17 10 0 12 -1 12 -20 0z"/>
<path d="M3205 1504 c-26 -12 -27 -14 -5 -9 14 2 31 5 38 5 6 0 12 5 12 10 0
13 -9 12 -45 -6z"/>
<path d="M2345 1500 c3 -5 11 -10 16 -10 6 0 7 5 4 10 -3 6 -11 10 -16 10 -6
0 -7 -4 -4 -10z"/>
<path d="M3742 1478 c5 -15 28 -23 28 -10 0 5 -7 13 -16 16 -10 4 -14 1 -12
-6z"/>
<path d="M1780 1471 c0 -13 139 -106 147 -98 9 10 -27 36 -49 37 -10 0 -18 4
-18 8 0 5 -11 15 -25 22 -14 8 -23 20 -21 27 3 8 -2 13 -14 13 -11 0 -20 -4
-20 -9z"/>
<path d="M2430 1472 c0 -16 13 -20 35 -11 11 4 15 8 8 8 -6 1 -18 4 -27 7 -9
3 -16 1 -16 -4z"/>
<path d="M3090 1470 c-13 -9 -13 -10 0 -10 8 0 22 5 30 10 13 9 13 10 0 10 -8
0 -22 -5 -30 -10z"/>
<path d="M3050 1460 c-13 -8 -12 -10 3 -10 9 0 17 5 17 10 0 12 -1 12 -20 0z"/>
<path d="M2785 1430 l-100 -6 122 -2 c73 -1 124 2 128 8 4 6 -5 9 -22 8 -15
-1 -73 -5 -128 -8z"/>
<path d="M2470 1422 c0 -4 9 -8 20 -8 11 0 20 4 20 8 0 4 -9 8 -20 8 -11 0
-20 -4 -20 -8z"/>
<path d="M3030 1420 c0 -5 14 -10 30 -10 17 0 30 5 30 10 0 6 -13 10 -30 10
-16 0 -30 -4 -30 -10z"/>
<path d="M3659 1393 c-15 -17 2 -17 25 0 16 12 17 14 2 14 -9 0 -21 -6 -27
-14z"/>
<path d="M2025 1310 c3 -5 13 -10 21 -10 8 0 14 5 14 10 0 6 -9 10 -21 10 -11
0 -17 -4 -14 -10z"/>
<path d="M1420 1245 c-24 -25 -38 -45 -31 -45 6 0 10 -4 6 -9 -3 -5 -1 -12 4
-15 5 -4 12 -2 15 3 4 5 2 12 -4 16 -13 8 10 42 45 65 15 10 23 20 18 23 -6 4
-29 -14 -53 -38z"/>
<path d="M2170 1244 c30 -14 65 -24 77 -21 13 2 23 0 23 -6 0 -5 7 -4 15 3 27
22 16 28 -52 33 -38 2 -79 7 -93 11 -14 3 0 -5 30 -20z"/>
<path d="M3254 1238 c-3 -4 -2 -8 3 -9 48 -7 83 -5 106 5 26 10 22 11 -38 12
-36 0 -69 -4 -71 -8z"/>
<path d="M2510 1161 l-45 -7 66 -8 c37 -4 76 -5 88 -1 14 4 21 2 21 -6 0 -7 6
-4 15 7 13 17 14 17 15 2 0 -10 5 -18 11 -18 5 0 8 4 5 9 -8 13 32 18 110 14
38 -1 106 -5 151 -7 45 -2 95 -1 110 2 l28 6 -25 7 c-31 9 -488 8 -550 0z"/>
<path d="M1225 1038 c-44 -45 -63 -67 -43 -50 21 17 44 29 52 26 8 -3 16 4 20
20 3 13 18 38 32 55 45 53 22 34 -61 -51z"/>
<path d="M1320 1099 c0 -5 5 -7 10 -4 6 3 10 8 10 11 0 2 -4 4 -10 4 -5 0 -10
-5 -10 -11z"/>
<path d="M1580 1079 c0 -12 5 -19 12 -17 18 6 20 25 3 31 -10 5 -15 0 -15 -14z"/>
<path d="M1422 916 c1 -10 8 -17 13 -17 15 1 12 24 -3 29 -9 3 -13 -2 -10 -12z"/>
<path d="M1075 860 c3 -5 8 -10 11 -10 2 0 4 5 4 10 0 6 -5 10 -11 10 -5 0 -7
-4 -4 -10z"/>
<path d="M1385 849 c-4 -6 -13 -8 -21 -5 -17 6 -28 -10 -13 -20 6 -3 21 3 32
15 12 11 18 21 15 21 -4 0 -10 -5 -13 -11z"/>
<path d="M940 693 c0 -6 8 -17 18 -24 16 -13 16 -13 2 6 -8 11 -16 22 -17 24
-2 2 -3 0 -3 -6z"/>
<path d="M998 673 c7 -3 16 -2 19 1 4 3 -2 6 -13 5 -11 0 -14 -3 -6 -6z"/>
<path d="M1190 665 c7 -8 17 -12 22 -9 6 4 5 10 -3 15 -22 14 -33 10 -19 -6z"/>
<path d="M1030 591 c19 -17 39 -31 45 -31 5 0 3 4 -5 10 -20 12 -9 20 19 13
17 -4 19 -8 9 -14 -10 -7 -10 -9 3 -9 8 0 26 11 39 25 13 14 19 25 13 25 -6 0
-14 -6 -16 -12 -4 -10 -6 -10 -6 0 -1 16 -68 16 -73 0 -3 -9 -12 -8 -34 5 -26
16 -25 15 6 -12z"/>
</g>
</svg>
